<svg xmlns="http://www.w3.org/2000/svg" width="42" height="47" fill="none" viewBox="0 0 42 47">
  <path fill="#F5D581"
        d="M42 27.48V46.5c0 .27-.2.48-.46.48H16.96a.47.47 0 0 1-.46-.48v-5.01h4.07c.51 0 .93-.43.93-.97V37h4.07c.51 0 .93-.43.93-.97v-4.2h4.07c.51 0 .93-.43.93-.97V27h10.04c.25 0 .46.22.46.48Z"/>
  <path stroke="#F5D581" d="M20.52.87v5.22"/>
  <path stroke="#F5D581" stroke-linejoin="round" d="M17.57 6.1h6.64l1.9 6.09H15.67l1.9-6.1Z"/>
  <path stroke="#F5D581"
        d="M4.5 41.5h5v3a1 1 0 0 1-1 1h-3a1 1 0 0 1-1-1v-3ZM36.5 28.72v-9.57M32 27.5v-8M27 33.94V20M22 38.3V24.5M17 42.3V29"/>
  <path fill="#F5D581"
        d="M3.5 41h7c.28 0 .5.11.5.25v.5c0 .14-.22.25-.5.25h-7c-.28 0-.5-.11-.5-.25v-.5c0-.14.22-.25.5-.25Z"/>
  <path stroke="#F5D581"
        d="m5.69 40.07.19.25.02.04c.13.23.23.46.3.7a3.4 3.4 0 0 1-1.08-.72c-.24-.3-.41-.64-.51-1 .4.18.77.43 1.08.73ZM6.43 39.36c.07-.49.22-.95.46-1.37a4.02 4.02 0 0 1 .17 1.68c-.14.3-.25.63-.33.95-.08-.3-.18-.6-.3-.88v-.38ZM7.87 40.1a4.4 4.4 0 0 1 1.52-.8c-.12.35-.33.7-.63 1-.41.35-.93.62-1.5.8.08-.25.2-.5.37-.73l.02-.03.22-.24Z"/>
  <path fill="#F5D581"
        d="M12 34.5a.5.5 0 0 0 1 0h-1Zm1.5-2.4.33.38-.34-.37Zm13.35-12 .33.37-.33-.37Zm14.65-1.02H28.18v1H41.5v-1Zm-14.99.64L13.16 31.73l.67.75 13.35-12.01-.67-.75ZM12 34.34v.16h1v-.16h-1Zm1.16-2.6a3.5 3.5 0 0 0-1.16 2.6h1c0-.71.3-1.39.83-1.86l-.67-.75Zm15.02-12.66a2.5 2.5 0 0 0-1.67.64l.67.75a1.5 1.5 0 0 1 1-.39v-1Z"/>
  <path stroke="#F5D581" d="M.5 21a20.5 20.5 0 1 1 41 0v25.5H.5V21Z"/>
</svg>